<svg width="230" height="90" viewBox="0 0 230 90" fill="none" xmlns="http://www.w3.org/2000/svg">
<path d="M183.284 74.5684C176.071 74.5684 168.857 74.5684 161.644 74.5684C156.623 74.5684 150.238 74.6392 153.901 81.7508C155.083 84.0453 165.083 83.803 167.334 83.803C171.531 83.803 175.729 83.803 179.926 83.803C184.842 83.803 180.193 77.5163 185.989 77.0869C188.083 76.9318 189.627 73.7288 187.062 73.7288C184.343 73.7288 181.909 74.4707 179.273 74.5684C173.625 74.7776 169.161 76.4992 163.229 75.5944C160.411 75.1645 152.086 75.432 150.17 73.7288C146.246 70.2403 139.805 64.5878 139.63 58.6177C139.501 54.2403 138.74 47.7546 142.148 44.346C151.508 34.9867 163.556 35.1114 176.195 35.1114C183.051 35.1114 187.123 36.1511 192.332 41.1745C197.083 45.7554 200.914 49.1911 200.914 55.9126C200.914 59.2767 200.466 67.0424 195.877 67.8523C193.216 68.3219 188.685 70.4835 187.482 72.8893" stroke="white" stroke-width="3" stroke-linecap="round"/>
<path d="M151.383 30.0745C149.386 28.0773 146.754 25.8537 145.506 23.3584" stroke="white" stroke-width="3" stroke-linecap="round"/>
<path d="M163.136 29.2346C166.118 26.2527 168.357 22.645 171.531 20" stroke="white" stroke-width="3" stroke-linecap="round"/>
<path d="M187.482 28.3949C192.363 25.5337 196.964 23.2338 201.753 20.8394" stroke="white" stroke-width="3" stroke-linecap="round"/>
<path d="M206.791 40.9876C213.863 40.8635 220.729 39.3086 227.778 39.3086" stroke="white" stroke-width="3" stroke-linecap="round"/>
<path d="M215.186 61.9761H226.099" stroke="white" stroke-width="3" stroke-linecap="round"/>
<path d="M135.432 43.5063C132.131 42.8622 128.187 42.8737 125.358 40.9878" stroke="white" stroke-width="3" stroke-linecap="round"/>
<path d="M134.593 61.9761C130.619 63.6239 126.369 66.1736 122 66.1736" stroke="white" stroke-width="3" stroke-linecap="round"/>
<path d="M144.667 81.2837C142.836 83.7004 140.928 85.8623 138.79 87.9998" stroke="white" stroke-width="3" stroke-linecap="round"/>
<path d="M200.914 77.9263C205.387 78.8134 209.859 79.653 214.346 80.4448" stroke="white" stroke-width="3" stroke-linecap="round"/>
<path d="M161.457 53.5806C163.751 57.3425 166.784 62.5602 168.126 56.5189C168.885 53.1062 167.576 51.3657 165.654 48.9633C164.678 47.7427 157.47 44.4125 157.259 47.0511C157.055 49.6045 156.4 54.5854 157.446 56.9387C158.741 59.8516 161.951 63.6547 165.235 63.6547C170.787 63.6547 184.124 65.651 184.124 57.7782C184.124 55.3549 184.117 50.6415 180.766 50.2226C176.154 49.6462 173.794 43.464 169.013 42.667" stroke="white" stroke-width="3" stroke-linecap="round"/>
<path d="M59.7773 28.1572C59.6309 28.4502 59.4844 28.6846 59.3379 28.8604C59.2207 29.0361 59.1182 29.168 59.0303 29.2559C58.9131 29.373 58.8105 29.4463 58.7227 29.4756C58.4883 29.5342 58.0195 29.6221 57.3164 29.7393C56.6133 29.8271 55.6611 29.9004 54.46 29.959C53.5811 30.0176 52.3799 30.1494 50.8564 30.3545C49.333 30.5303 47.5898 30.7646 45.627 31.0576C43.6934 31.3213 41.584 31.5996 39.2988 31.8926C37.0137 32.1855 34.6406 32.4346 32.1797 32.6396C31.9453 36.7412 31.7695 40.9307 31.6523 45.208C31.5645 49.4854 31.4912 53.792 31.4326 58.1279C31.374 62.4346 31.3154 66.7412 31.2568 71.0479C31.2275 75.3252 31.1689 79.5293 31.0811 83.6602C31.0811 83.8066 31.0225 83.9531 30.9053 84.0996C30.7881 84.2168 30.7002 84.3193 30.6416 84.4072C30.4951 84.9932 30.2314 85.5059 29.8506 85.9453C29.4697 86.3555 29.0742 86.5605 28.6641 86.5605C27.4336 86.5605 26.4814 86.3701 25.8076 85.9893C25.1631 85.6084 24.6064 85.1982 24.1377 84.7588C23.9326 84.4951 23.7275 84.1143 23.5225 83.6162C23.3467 83.0889 23.1855 82.5176 23.0391 81.9023C22.8926 81.2578 22.7607 80.584 22.6436 79.8809C22.5264 79.1484 22.4531 78.46 22.4238 77.8154C22.3652 77.1709 22.3213 76.541 22.292 75.9258C22.2627 75.3105 22.248 74.6807 22.248 74.0361C22.248 72.6299 22.292 71.2529 22.3799 69.9053C22.4678 68.5576 22.541 67.2979 22.5996 66.126C22.6289 65.3936 22.6729 64.3535 22.7314 63.0059C22.8193 61.6582 22.9219 60.1201 23.0391 58.3916C23.1562 56.6631 23.2881 54.8174 23.4346 52.8545C23.5811 50.8623 23.7568 48.8701 23.9619 46.8779C24.1963 44.8857 24.4453 42.9521 24.709 41.0771C24.9727 39.1729 25.2656 37.4443 25.5879 35.8916C25.7344 35.4229 25.8662 34.9688 25.9834 34.5293C26.1006 34.0605 26.2031 33.5771 26.291 33.0791C23.5957 33.2549 20.959 33.3428 18.3809 33.3428C15.0703 33.3428 11.9209 33.1523 8.93262 32.7715C5.94434 32.3613 3.39551 31.6582 1.28613 30.6621C1.02246 30.5156 0.875977 30.252 0.84668 29.8711C0.788086 29.4902 0.670898 29.0947 0.495117 28.6846C0.260742 28.3623 0.172852 28.0107 0.231445 27.6299C0.290039 27.2197 0.319336 26.8828 0.319336 26.6191C0.290039 26.3555 0.37793 26.1797 0.583008 26.0918C0.758789 26.0039 1.13965 25.9746 1.72559 26.0039C2.28223 26.0039 3.05859 26.0332 4.05469 26.0918C5.08008 26.1504 6.41309 26.1797 8.05371 26.1797C9.28418 26.1797 10.6904 26.1504 12.2725 26.0918C13.8545 26.0332 15.6562 25.9307 17.6777 25.7842C18.6738 25.6963 20.1094 25.5645 21.9844 25.3887C23.8887 25.1836 26.0273 24.9932 28.4004 24.8174C30.8027 24.6123 33.3516 24.4365 36.0469 24.29C38.7422 24.1436 41.4082 24.0703 44.0449 24.0703C45.041 24.0703 46.1543 24.1289 47.3848 24.2461C48.6152 24.334 49.8311 24.4658 51.0322 24.6416C52.2627 24.8174 53.3906 25.0225 54.416 25.2568C55.4707 25.4912 56.335 25.7256 57.0088 25.96C57.4482 26.1357 57.7119 26.2969 57.7998 26.4434C57.8877 26.5605 57.917 26.6631 57.8877 26.751C57.8877 26.8389 57.873 26.9121 57.8438 26.9707C57.8145 27.0293 57.8877 27.0879 58.0635 27.1465C58.2393 27.2051 58.4297 27.249 58.6348 27.2783C58.8398 27.3076 59.0303 27.3662 59.2061 27.4541C59.3818 27.5127 59.5283 27.6006 59.6455 27.7178C59.7627 27.835 59.8066 27.9814 59.7773 28.1572ZM87.5068 25.5205C88.5615 25.5205 89.7334 25.6084 91.0225 25.7842C92.3408 25.96 93.6299 26.2529 94.8896 26.6631C96.1787 27.0732 97.3652 27.6152 98.4492 28.2891C99.5332 28.9336 100.368 29.7539 100.954 30.75C101.687 31.2773 102.346 32.0537 102.932 33.0791C103.459 34.1924 103.723 35.2471 103.723 36.2432C103.723 37.3564 103.518 38.3818 103.107 39.3193C102.727 40.2568 102.229 41.1064 101.613 41.8682C100.998 42.6299 100.324 43.3037 99.5918 43.8896C98.8887 44.4756 98.2002 44.9736 97.5264 45.3838C96.8525 45.7646 96.2666 46.0576 95.7686 46.2627C95.2705 46.4678 94.9482 46.5703 94.8018 46.5703C94.6553 46.5703 94.4062 46.4971 94.0547 46.3506C93.7324 46.2041 93.4102 46.0283 93.0879 45.8232C92.707 45.6182 92.2969 45.3691 91.8574 45.0762C91.8574 45.0469 92.1357 44.8711 92.6924 44.5488C93.249 44.2266 93.8643 43.7285 94.5381 43.0547C95.2412 42.3809 95.8711 41.502 96.4277 40.418C96.9844 39.3047 97.2627 37.9424 97.2627 36.3311C96.999 35.8037 96.6328 35.3057 96.1641 34.8369C95.6953 34.3389 95.0947 33.9141 94.3623 33.5625C93.6299 33.1816 92.7363 32.874 91.6816 32.6396C90.6562 32.4053 89.4258 32.2881 87.9902 32.2881C87.4922 32.2881 86.7305 32.3613 85.7051 32.5078C84.6797 32.6543 83.4932 32.918 82.1455 33.2988C80.7979 33.6797 79.333 34.207 77.751 34.8809C76.1982 35.5254 74.6309 36.3896 73.0488 37.4736C71.4961 38.5283 69.9873 39.8174 68.5225 41.3408C67.0869 42.835 65.8125 44.6074 64.6992 46.6582C63.5859 48.6797 62.6924 51.0088 62.0186 53.6455C61.374 56.2822 61.0518 59.2705 61.0518 62.6104C61.0518 64.4268 61.1982 66.082 61.4912 67.5762C61.7842 69.041 62.165 70.374 62.6338 71.5752C63.1318 72.7471 63.7031 73.8018 64.3477 74.7393C64.9922 75.6475 65.666 76.4678 66.3691 77.2002C66.8086 77.4346 67.3066 77.7422 67.8633 78.123C68.4199 78.4746 69.167 78.8262 70.1045 79.1777C71.0713 79.5 72.3018 79.793 73.7959 80.0566C75.29 80.291 77.1943 80.4082 79.5088 80.4082C81.501 80.4082 83.3906 80.1738 85.1777 79.7051C86.9941 79.2363 88.6787 78.6357 90.2314 77.9033C91.8135 77.1709 93.2637 76.3652 94.582 75.4863C95.9004 74.5781 97.0576 73.6992 98.0537 72.8496C99.0791 71.9707 99.9287 71.1797 100.603 70.4766C101.276 69.7441 101.745 69.1875 102.009 68.8066C102.565 68.0449 102.961 67.5615 103.195 67.3564C103.43 67.1221 103.635 67.0049 103.811 67.0049C103.957 67.0049 104.089 67.0195 104.206 67.0488C104.353 67.0781 104.499 67.0928 104.646 67.0928C104.909 67.0928 105.07 66.9609 105.129 66.6973C105.188 66.4336 105.261 66.3018 105.349 66.3018C105.407 66.3018 105.451 66.4189 105.48 66.6533C105.51 66.8877 105.524 67.166 105.524 67.4883C105.524 67.6641 105.51 67.8398 105.48 68.0156C105.451 68.1621 105.437 68.3086 105.437 68.4551C105.407 68.6309 105.275 69.2314 105.041 70.2568C104.836 71.2529 104.426 72.4541 103.811 73.8604C103.225 75.2373 102.39 76.7168 101.306 78.2988C100.222 79.8809 98.8154 81.3457 97.0869 82.6934C95.3877 84.041 93.3076 85.1543 90.8467 86.0332C88.3857 86.9121 85.4854 87.3516 82.1455 87.3516C80.124 87.3516 78.249 87.1758 76.5205 86.8242C74.8213 86.4434 73.2832 85.9893 71.9062 85.4619C70.5586 84.9053 69.3574 84.3047 68.3027 83.6602C67.248 82.9863 66.3691 82.3564 65.666 81.7705C64.1719 80.9209 62.7363 79.8369 61.3594 78.5186C59.9824 77.2002 58.7666 75.6182 57.7119 73.7725C56.6572 71.9268 55.8076 69.7881 55.1631 67.3564C54.5479 64.8955 54.2402 62.1123 54.2402 59.0068C54.2402 55.9014 54.6504 52.9131 55.4707 50.042C56.291 47.1709 57.4336 44.4902 58.8984 42C60.3926 39.5098 62.165 37.2539 64.2158 35.2324C66.2666 33.2109 68.5225 31.4824 70.9834 30.0469C73.4443 28.6113 76.0664 27.498 78.8496 26.707C81.6621 25.916 84.5479 25.5205 87.5068 25.5205Z" fill="#F74F22"/>
</svg>
